<svg width="250" height="250" viewBox="0 0 250 250" fill="none" xmlns="http://www.w3.org/2000/svg">
<path d="M142.087 213.542C200.215 213.542 247.337 166.905 247.337 109.375C247.337 51.8453 200.215 5.20831 142.087 5.20831C83.9595 5.20831 36.8375 51.8453 36.8375 109.375C36.8375 166.905 83.9595 213.542 142.087 213.542Z" fill="white"/>
<path d="M131.562 130.208V244.792H5.26245V129.635L25.7862 109.375H110.512L131.562 130.208Z" fill="#FFBE1D"/>
<path d="M15.7874 78.125H121.037V109.375H15.7874V78.125Z" fill="#7C6F66"/>
<path d="M142.087 0C119.242 0.0096799 96.9613 7.02627 78.3111 20.0842C59.6608 33.1421 45.5577 51.5996 37.9426 72.9167H10.525V114.583H13.1036L0 127.5V250H136.825V218.75C151.338 219.092 165.776 216.602 179.317 211.421C192.857 206.24 205.233 198.471 215.74 188.556C226.246 178.642 234.676 166.776 240.549 153.637C246.423 140.498 249.623 126.342 249.969 111.979C250.314 97.6158 247.798 83.3258 242.563 69.9249C237.329 56.5241 229.479 44.2748 219.461 33.8766C209.443 23.4784 197.454 15.1348 184.178 9.32225C170.903 3.50969 156.6 0.341984 142.087 0ZM222.288 50.3646C234.124 65.9621 241.011 84.6884 242.075 104.167H205.237C204.582 88.1414 200.887 72.3812 194.344 57.7083C203.812 55.8706 213.146 53.4174 222.288 50.3646ZM95.3038 72.9167C96.7478 68.3245 98.506 63.8349 100.566 59.4792C128.032 63.4372 155.932 63.4372 183.398 59.4792C190.128 73.4845 193.974 88.6754 194.712 104.167H126.3V72.9167H95.3038ZM215.026 41.6667C206.66 44.3701 198.114 46.4933 189.45 48.0208C181.908 34.3728 171.943 22.1814 160.033 12.0312C181.097 15.8276 200.373 26.2157 215.026 41.6667ZM142.087 11.4583C156.874 21.4205 169.256 34.4923 178.346 49.7396C154.273 52.8126 129.902 52.8126 105.829 49.7396C114.919 34.4923 127.3 21.4205 142.087 11.4583ZM124.142 12.0312C112.232 22.1814 102.267 34.3728 94.725 48.0208C86.061 46.4933 77.515 44.3701 69.1492 41.6667C83.8015 26.2157 103.078 15.8276 124.142 12.0312ZM61.887 50.3646C71.062 53.4249 80.4323 55.8782 89.9361 57.7083C87.6898 62.6481 85.7736 67.7284 84.2 72.9167H49.1517C52.3465 64.8638 56.6307 57.2772 61.887 50.3646ZM21.05 83.3333H115.775V104.167H21.05V83.3333ZM126.3 207.083L124.142 206.719C124.829 207.299 125.549 207.838 126.3 208.333V239.583H10.525V131.823L27.9439 114.583H108.355L126.3 132.344V207.083ZM123.195 114.583H194.712C194.033 130.037 190.278 145.205 183.661 159.219C168.155 156.983 152.492 155.99 136.825 156.25V128.073L123.195 114.583ZM142.087 207.292C140.298 206.094 138.509 204.844 136.825 203.542V166.667C150.704 166.375 164.586 167.141 178.346 168.958C169.29 184.245 156.903 197.341 142.087 207.292ZM160.033 206.719C171.956 196.561 181.923 184.35 189.45 170.677C198.128 172.24 206.691 174.38 215.078 177.083C200.412 192.544 181.116 202.933 160.033 206.719ZM222.288 168.385C213.145 165.22 203.767 162.765 194.239 161.042C200.818 146.376 204.549 130.615 205.237 114.583H242.075C241.011 134.062 234.124 152.788 222.288 168.385Z" fill="black"/>
<path d="M10.525 135.417H126.3V229.167H10.525V135.417Z" fill="white"/>
<path d="M94.725 171.875H78.9375V156.25H57.8875V171.875H42.1V192.708H57.8875V208.333H78.9375V192.708H94.725V171.875Z" fill="#FFBE1D"/>
</svg>
