<svg width="36" height="36" viewBox="0 0 36 36" fill="none" xmlns="http://www.w3.org/2000/svg">
<path d="M33.0102 2.98979C31.0954 1.07544 28.4987 0 25.7911 0C23.0835 0 20.4868 1.07544 18.572 2.98979L3.09686 18.465C2.12597 19.4079 1.35222 20.5344 0.820622 21.779C0.289018 23.0237 0.0101636 24.3616 0.000272689 25.715C-0.00961819 27.0683 0.249652 28.4102 0.763007 29.6624C1.27636 30.9147 2.03356 32.0524 2.99056 33.0094C3.94757 33.9664 5.08529 34.7236 6.33756 35.237C7.58983 35.7503 8.93167 36.0096 10.285 35.9997C11.6384 35.9898 12.9763 35.711 14.221 35.1794C15.4656 34.6478 16.5921 33.874 17.535 32.9031L33.0102 17.428C34.9246 15.5132 36 12.9165 36 10.2089C36 7.50129 34.9246 4.90455 33.0102 2.98979ZM14.7032 30.0913C13.5147 31.2147 11.9414 31.8406 10.306 31.8406C8.67059 31.8406 7.09721 31.2147 5.90871 30.0913C4.74815 28.9221 4.09688 27.3414 4.09688 25.694C4.09688 24.0466 4.74815 22.466 5.90871 21.2968L12.2503 14.9551L21.0449 23.7497L14.7032 30.0913ZM30.1983 14.5962L23.8567 20.9378L15.0622 12.1433L21.4038 5.80165C22.5825 4.69748 24.1443 4.09488 25.7591 4.12122C27.3739 4.14755 28.9152 4.80076 30.0572 5.94277C31.1992 7.08477 31.8524 8.62609 31.8788 10.2409C31.9051 11.8557 31.3025 13.4175 30.1983 14.5962Z" fill="black"/>
</svg>
