<svg width="400" height="400" viewBox="0 0 400 400" fill="none" xmlns="http://www.w3.org/2000/svg">
<g clip-path="url(#clip0_10_22)">
<path d="M120.938 110.687C102.438 119.187 84.0625 127.625 65.625 136.125C57.3125 132.375 48.9375 128.688 40.625 125C59.375 116.688 78.125 108.354 96.875 100C104.875 103.562 112.938 107.125 120.938 110.687Z" fill="white"/>
<path d="M153.125 125V181.25C134.375 189.562 115.625 197.896 96.875 206.25V150C115.625 141.688 134.375 133.354 153.125 125Z" fill="white"/>
<path d="M153.125 125C134.375 133.313 115.625 141.646 96.875 150C86.4375 145.375 76.0625 140.75 65.625 136.125C84.0625 127.625 102.438 119.188 120.938 110.688H121C131.688 115.5 142.438 120.25 153.125 125Z" fill="white"/>
<path d="M65.625 136.125C76.0625 140.75 86.4375 145.375 96.875 150V206.25C78.125 197.938 59.375 189.604 40.625 181.25V125C48.9375 128.688 57.3125 132.375 65.625 136.125ZM171.875 42.375C182.312 47 192.688 51.625 203.125 56.25V112.5C184.375 104.188 165.625 95.8542 146.875 87.5V31.25C155.188 34.9375 163.562 38.625 171.875 42.375Z" fill="white"/>
<path d="M259.375 31.25V87.5C240.625 95.8125 221.875 104.146 203.125 112.5V56.25C221.875 47.9375 240.625 39.6042 259.375 31.25Z" fill="white"/>
<path d="M259.375 31.25C240.625 39.5625 221.875 47.8958 203.125 56.25C192.688 51.625 182.312 47 171.875 42.375C190.312 33.875 208.687 25.4375 227.187 16.9375H227.25C237.938 21.75 248.688 26.5 259.375 31.25Z" fill="white"/>
<path d="M227.187 16.9375C208.687 25.4375 190.312 33.875 171.875 42.375C163.562 38.625 155.188 34.9375 146.875 31.25C165.625 22.9375 184.375 14.6042 203.125 6.25C211.125 9.8125 219.187 13.375 227.187 16.9375Z" fill="white"/>
<path d="M334.375 136.125C342.688 132.375 351.062 128.687 359.375 125V181.25C340.625 189.562 321.875 197.896 303.125 206.25V150C313.562 145.375 323.938 140.75 334.375 136.125Z" fill="white"/>
<path d="M359.375 125C351.062 128.688 342.687 132.375 334.375 136.125C315.937 127.625 297.562 119.187 279.062 110.687C287.062 107.125 295.125 103.562 303.125 100C321.875 108.312 340.625 116.646 359.375 125Z" fill="white"/>
<path d="M334.375 136.125C323.938 140.75 313.562 145.375 303.125 150C284.375 141.688 265.625 133.354 246.875 125C257.563 120.25 268.312 115.5 279 110.688H279.063C297.563 119.188 315.937 127.625 334.375 136.125Z" fill="white"/>
<path d="M303.125 150V206.25C284.375 197.938 265.625 189.604 246.875 181.25V125C265.625 133.312 284.375 141.646 303.125 150Z" fill="white"/>
<path d="M303.125 243.625C311.438 254.062 319.812 264.563 328.125 275C319.812 278.625 311.438 282.313 303.125 285.938L228.125 318.75C219.812 306.25 211.438 293.75 203.125 281.25C236.438 268.688 269.771 256.146 303.125 243.625Z" fill="white"/>
<path d="M203.125 200C236.438 214.562 269.771 229.104 303.125 243.625C269.812 256.187 236.479 268.729 203.125 281.25C169.812 268.75 136.479 256.25 103.125 243.75C136.438 229.188 169.771 214.604 203.125 200Z" fill="white"/>
<path d="M303.125 285.938V343.75C269.812 360.438 236.479 377.104 203.125 393.75V281.25C211.438 293.75 219.812 306.25 228.125 318.75L303.125 285.938Z" fill="white"/>
<path d="M203.125 281.25V393.75C169.812 377.062 136.479 360.396 103.125 343.75V285.938L178.125 318.75C186.438 306.25 194.812 293.75 203.125 281.25Z" fill="white"/>
<path d="M203.125 281.25C194.812 293.75 186.438 306.25 178.125 318.75L103.125 285.938C94.8125 282.312 86.4375 278.625 78.125 275C86.4375 264.562 94.8125 254.188 103.125 243.75C136.438 256.25 169.771 268.75 203.125 281.25Z" fill="white"/>
<path d="M203.125 400C201.468 399.999 199.879 399.34 198.707 398.169C197.535 396.997 196.876 395.408 196.875 393.75V281.348C196.87 281.099 196.88 280.851 196.906 280.603L196.912 280.597C196.959 280.131 197.059 279.672 197.211 279.23C197.598 278.086 198.311 277.081 199.262 276.337C199.502 276.15 199.755 275.981 200.019 275.83C200.347 275.637 200.695 275.477 201.056 275.354L300.922 237.775C302.158 237.305 303.512 237.241 304.787 237.593C306.062 237.944 307.192 238.692 308.014 239.728L333.014 271.106C333.61 271.856 334.027 272.732 334.231 273.667C334.435 274.603 334.422 275.573 334.192 276.502C333.962 277.432 333.521 278.296 332.905 279.028C332.288 279.76 331.511 280.341 330.634 280.726L309.375 290.027V343.75C309.375 344.911 309.052 346.049 308.442 347.036C307.831 348.024 306.959 348.822 305.921 349.341L205.921 399.341C205.052 399.774 204.095 400 203.125 400ZM209.375 301.892V383.637L296.875 339.887V295.496L230.628 324.475C229.282 325.059 227.775 325.153 226.367 324.741C224.96 324.328 223.742 323.435 222.925 322.217L209.375 301.892ZM212.689 284.326L230.42 310.926L300.483 280.274C300.574 280.231 300.672 280.188 300.763 280.152L318.171 272.534L301.068 251.074L212.689 284.326Z" fill="#FCC60E"/>
<path d="M203.119 400C202.151 399.999 201.196 399.773 200.329 399.341L100.329 349.341C99.2914 348.821 98.4185 348.023 97.8084 347.036C97.1983 346.048 96.8751 344.911 96.875 343.75V285.938C96.875 284.28 97.5335 282.69 98.7056 281.518C99.8777 280.346 101.467 279.688 103.125 279.688C104.783 279.688 106.372 280.346 107.544 281.518C108.717 282.69 109.375 284.28 109.375 285.938V339.886L205.92 388.159C207.181 388.789 208.191 389.826 208.788 391.102C209.385 392.378 209.533 393.818 209.209 395.189C208.884 396.56 208.106 397.781 207.001 398.654C205.896 399.528 204.527 400.002 203.119 400Z" fill="#FCC60E"/>
<path d="M178.125 325C177.264 325 176.411 324.821 175.623 324.475L75.6164 280.725C74.7388 280.34 73.9615 279.757 73.3445 279.024C72.7275 278.29 72.2873 277.425 72.0578 276.494C71.8284 275.563 71.8159 274.592 72.0212 273.656C72.2266 272.72 72.6443 271.843 73.2422 271.094L98.2422 239.844C99.069 238.818 100.198 238.078 101.468 237.728C102.739 237.379 104.087 237.438 105.322 237.897L205.322 275.397C206.204 275.728 206.999 276.253 207.649 276.935C208.299 277.616 208.786 278.435 209.075 279.331C209.364 280.228 209.447 281.177 209.317 282.11C209.187 283.043 208.848 283.934 208.325 284.717L183.325 322.217C182.754 323.072 181.981 323.774 181.074 324.259C180.167 324.745 179.154 324.999 178.125 325ZM88.0982 272.54L175.83 310.925L193.555 284.338L105.176 251.196L88.0982 272.54Z" fill="#FCC60E"/>
<path d="M103.131 250C101.696 250.001 100.303 249.508 99.1887 248.603C98.074 247.698 97.3048 246.437 97.0105 245.032C96.7161 243.627 96.9145 242.163 97.5724 240.887C98.2302 239.611 99.3074 238.6 100.623 238.025L200.616 194.275C201.405 193.928 202.257 193.749 203.118 193.748C203.98 193.747 204.832 193.924 205.621 194.269L305.621 237.891C306.374 238.219 307.055 238.691 307.625 239.282C308.194 239.873 308.642 240.571 308.943 241.335C309.243 242.099 309.39 242.914 309.375 243.735C309.36 244.556 309.184 245.366 308.856 246.118C308.528 246.871 308.056 247.552 307.465 248.122C306.874 248.691 306.176 249.139 305.412 249.44C304.648 249.74 303.833 249.887 303.012 249.872C302.191 249.857 301.381 249.681 300.629 249.353L203.131 206.818L105.627 249.475C104.841 249.823 103.991 250.002 103.131 250ZM359.369 131.238C358.496 131.239 357.633 131.056 356.836 130.701L303.125 106.83L249.414 130.701C247.9 131.369 246.182 131.41 244.638 130.814C243.093 130.218 241.849 129.033 241.176 127.521C240.504 126.008 240.459 124.29 241.051 122.745C241.644 121.199 242.825 119.951 244.336 119.275L300.586 94.275C301.385 93.9189 302.25 93.7349 303.125 93.7349C304 93.7349 304.865 93.9189 305.664 94.275L361.914 119.275C363.224 119.857 364.294 120.871 364.945 122.148C365.596 123.425 365.788 124.886 365.49 126.288C365.192 127.69 364.421 128.947 363.307 129.848C362.192 130.749 360.802 131.24 359.369 131.238Z" fill="#FCC60E"/>
<path d="M303.131 212.488C301.698 212.49 300.308 211.999 299.193 211.098C298.079 210.197 297.308 208.94 297.01 207.538C296.712 206.136 296.904 204.675 297.555 203.398C298.206 202.121 299.276 201.107 300.586 200.525L353.125 177.179V134.607L305.664 155.701C304.15 156.369 302.432 156.41 300.888 155.814C299.343 155.218 298.099 154.033 297.426 152.521C296.754 151.008 296.709 149.29 297.301 147.745C297.894 146.199 299.075 144.951 300.586 144.275L356.836 119.275C357.788 118.852 358.83 118.673 359.868 118.755C360.907 118.837 361.908 119.178 362.781 119.746C363.655 120.313 364.372 121.09 364.869 122.006C365.365 122.921 365.625 123.946 365.625 124.988V181.238C365.625 182.447 365.275 183.63 364.616 184.644C363.957 185.658 363.019 186.459 361.914 186.951L305.664 211.951C304.867 212.305 304.004 212.488 303.131 212.488Z" fill="#FCC60E"/>
<path d="M303.125 212.488C302.25 212.488 301.385 212.305 300.586 211.951L244.336 186.951C243.231 186.459 242.293 185.658 241.634 184.644C240.975 183.63 240.625 182.447 240.625 181.238V124.988C240.625 123.946 240.884 122.921 241.381 122.006C241.878 121.09 242.595 120.313 243.469 119.746C244.342 119.178 245.343 118.837 246.382 118.755C247.42 118.673 248.462 118.852 249.414 119.275L305.664 144.275C306.769 144.766 307.707 145.568 308.366 146.582C309.025 147.596 309.375 148.779 309.375 149.988V206.238C309.376 207.059 309.214 207.872 308.901 208.631C308.587 209.389 308.126 210.078 307.546 210.659C306.965 211.239 306.276 211.7 305.518 212.014C304.759 212.327 303.946 212.489 303.125 212.488ZM253.125 177.179L296.875 196.619V154.047L253.125 134.607V177.179Z" fill="#FCC60E"/>
<path d="M271.875 168.738C271.054 168.739 270.241 168.577 269.483 168.263C268.724 167.949 268.035 167.489 267.455 166.909C266.874 166.328 266.414 165.639 266.1 164.88C265.786 164.122 265.625 163.309 265.625 162.488V136.103C265.625 134.906 265.968 133.735 266.614 132.728C267.26 131.72 268.181 130.92 269.269 130.42L324.615 105.017C325.362 104.675 326.168 104.483 326.988 104.453C327.809 104.422 328.627 104.553 329.397 104.839C330.167 105.124 330.872 105.559 331.474 106.117C332.076 106.676 332.562 107.347 332.904 108.094C333.246 108.84 333.438 109.646 333.469 110.466C333.5 111.287 333.368 112.105 333.083 112.875C332.797 113.645 332.363 114.35 331.804 114.952C331.246 115.554 330.574 116.04 329.828 116.382L278.125 140.113V162.488C278.125 163.309 277.964 164.122 277.65 164.881C277.336 165.639 276.876 166.328 276.295 166.909C275.715 167.489 275.026 167.949 274.267 168.263C273.509 168.577 272.696 168.739 271.875 168.738Z" fill="#FCC60E"/>
<path d="M153.119 131.244C152.246 131.244 151.383 131.061 150.586 130.707L96.875 106.836L43.1641 130.707C41.6497 131.375 39.932 131.416 38.3877 130.82C36.8434 130.224 35.5986 129.039 34.9263 127.527C34.254 126.014 34.2091 124.296 34.8014 122.75C35.3937 121.205 36.5749 119.957 38.0859 119.281L94.3359 94.2809C95.135 93.9248 96.0001 93.7407 96.875 93.7407C97.7499 93.7407 98.6149 93.9248 99.414 94.2809L155.664 119.281C156.974 119.863 158.044 120.877 158.695 122.154C159.346 123.43 159.538 124.892 159.24 126.294C158.942 127.696 158.171 128.952 157.056 129.853C155.942 130.755 154.552 131.245 153.119 131.244Z" fill="#FCC60E"/>
<path d="M96.8813 212.494C95.4481 212.495 94.0579 212.005 92.9435 211.104C91.829 210.202 91.0581 208.946 90.7599 207.544C90.4617 206.142 90.6542 204.68 91.3053 203.404C91.9563 202.127 93.0264 201.113 94.3361 200.531L146.875 177.185V134.613L99.4141 155.707C97.8997 156.375 96.182 156.416 94.6377 155.82C93.0935 155.224 91.8486 154.039 91.1763 152.527C90.504 151.014 90.4591 149.296 91.0514 147.751C91.6437 146.205 92.825 144.957 94.336 144.281L150.586 119.281C151.538 118.858 152.58 118.679 153.618 118.761C154.657 118.843 155.658 119.184 156.531 119.751C157.405 120.319 158.122 121.096 158.619 122.011C159.116 122.927 159.375 123.952 159.375 124.994V181.244C159.375 182.453 159.025 183.636 158.366 184.65C157.707 185.664 156.769 186.465 155.664 186.957L99.4141 211.957C98.6167 212.311 97.7538 212.494 96.8813 212.494Z" fill="#FCC60E"/>
<path d="M96.875 212.493C96.0004 212.494 95.1355 212.311 94.3359 211.956L38.0859 186.956C36.9812 186.465 36.0426 185.664 35.384 184.65C34.7253 183.636 34.3748 182.453 34.375 181.243V124.993C34.3746 123.952 34.6346 122.927 35.1312 122.011C35.6279 121.096 36.3455 120.319 37.2188 119.751C38.0921 119.184 39.0934 118.843 40.1317 118.761C41.17 118.679 42.2124 118.858 43.1641 119.281L99.4141 144.281C100.519 144.772 101.457 145.573 102.116 146.587C102.775 147.601 103.125 148.784 103.125 149.993V206.243C103.126 207.064 102.964 207.877 102.651 208.636C102.337 209.395 101.876 210.084 101.296 210.664C100.715 211.245 100.026 211.705 99.2676 212.019C98.509 212.333 97.696 212.494 96.875 212.493ZM46.875 177.185L90.625 196.624V154.052L46.875 134.613V177.185Z" fill="#FCC60E"/>
<path d="M65.625 168.744C64.8041 168.744 63.9912 168.583 63.2327 168.269C62.4742 167.955 61.785 167.495 61.2045 166.914C60.6241 166.334 60.1637 165.645 59.8498 164.886C59.5359 164.128 59.3745 163.315 59.375 162.494V136.108C59.375 134.912 59.7183 133.741 60.3642 132.733C61.0101 131.726 61.9314 130.925 63.0188 130.426L118.365 105.023C119.873 104.332 121.592 104.268 123.147 104.845C124.701 105.422 125.963 106.592 126.654 108.099C127.345 109.606 127.41 111.326 126.833 112.881C126.256 114.435 125.085 115.697 123.578 116.388L71.875 140.119V162.494C71.8755 163.315 71.7141 164.128 71.4002 164.886C71.0863 165.645 70.6259 166.334 70.0455 166.914C69.465 167.495 68.7758 167.955 68.0173 168.269C67.2588 168.583 66.4459 168.744 65.625 168.744Z" fill="#FCC60E"/>
<path d="M259.369 37.5001C258.496 37.5008 257.633 37.3178 256.836 36.963L203.125 13.0922L149.414 36.963C148.664 37.2964 147.855 37.4788 147.035 37.4998C146.214 37.5207 145.397 37.3798 144.631 37.0851C143.865 36.7904 143.164 36.3476 142.569 35.7821C141.973 35.2166 141.496 34.5394 141.162 33.7892C140.489 32.274 140.445 30.5534 141.04 29.0059C141.635 27.4584 142.821 26.2106 144.336 25.5372L200.586 0.53724C201.385 0.181112 202.25 -0.00292969 203.125 -0.00292969C204 -0.00292969 204.865 0.181112 205.664 0.53724L261.914 25.5372C263.224 26.1191 264.294 27.1333 264.945 28.4101C265.596 29.6868 265.789 31.1486 265.49 32.5504C265.192 33.9522 264.421 35.2089 263.307 36.11C262.192 37.0111 260.802 37.5019 259.369 37.5001Z" fill="#FCC60E"/>
<path d="M203.131 118.75C201.698 118.752 200.308 118.261 199.193 117.36C198.079 116.459 197.308 115.202 197.01 113.8C196.712 112.399 196.904 110.937 197.555 109.66C198.206 108.383 199.276 107.369 200.586 106.787L253.125 83.4414V40.8693L205.664 61.9631C204.149 62.6365 202.428 62.6804 200.881 62.0852C199.333 61.49 198.086 60.3044 197.412 58.7892C196.739 57.2741 196.695 55.5535 197.29 54.006C197.885 52.4584 199.071 51.2107 200.586 50.5373L256.836 25.5373C257.788 25.114 258.83 24.9354 259.868 25.0175C260.907 25.0997 261.908 25.44 262.781 26.0077C263.655 26.5753 264.372 27.3523 264.869 28.2678C265.366 29.1834 265.625 30.2086 265.625 31.2502V87.5002C265.625 88.7093 265.275 89.8925 264.616 90.9065C263.957 91.9205 263.019 92.7217 261.914 93.2131L205.664 118.213C204.867 118.568 204.004 118.751 203.131 118.75Z" fill="#FCC60E"/>
<path d="M203.125 118.75C202.25 118.75 201.385 118.567 200.586 118.213L144.336 93.2131C143.231 92.7217 142.293 91.9205 141.634 90.9065C140.975 89.8925 140.625 88.7093 140.625 87.5002V31.2502C140.625 30.2086 140.884 29.1834 141.381 28.2678C141.878 27.3523 142.595 26.5753 143.469 26.0077C144.342 25.44 145.343 25.0997 146.382 25.0175C147.42 24.9354 148.462 25.114 149.414 25.5373L205.664 50.5373C206.769 51.0287 207.707 51.8299 208.366 52.8439C209.025 53.8578 209.375 55.0411 209.375 56.2502V112.5C209.376 113.321 209.214 114.134 208.901 114.893C208.587 115.651 208.126 116.341 207.546 116.921C206.965 117.502 206.276 117.962 205.518 118.276C204.759 118.59 203.946 118.751 203.125 118.75ZM153.125 83.4414L196.875 102.881V60.309L153.125 40.8693V83.4414Z" fill="#FCC60E"/>
<path d="M171.875 75.0003C171.054 75.0008 170.241 74.8394 169.483 74.5255C168.724 74.2116 168.035 73.7512 167.455 73.1708C166.874 72.5903 166.414 71.9011 166.1 71.1427C165.786 70.3842 165.625 69.5712 165.625 68.7503V42.3587C165.625 41.1622 165.968 39.9908 166.614 38.9836C167.26 37.9763 168.181 37.1756 169.269 36.6763L224.615 11.2796C226.122 10.5884 227.842 10.5242 229.397 11.1011C230.951 11.6779 232.213 12.8487 232.904 14.3558C233.595 15.8628 233.66 17.5827 233.083 19.1372C232.506 20.6916 231.335 21.9532 229.828 22.6444L178.125 46.3691V68.7503C178.125 69.5712 177.964 70.3842 177.65 71.1427C177.336 71.9011 176.876 72.5903 176.295 73.1708C175.715 73.7512 175.026 74.2116 174.267 74.5255C173.509 74.8394 172.696 75.0008 171.875 75.0003Z" fill="#FCC60E"/>
<path d="M203.125 262.5C202.304 262.5 201.492 262.338 200.734 262.024C199.975 261.71 199.286 261.249 198.706 260.669L173.706 235.669C172.552 234.493 171.908 232.909 171.916 231.262C171.923 229.614 172.581 228.036 173.746 226.871C174.911 225.706 176.489 225.048 178.137 225.041C179.784 225.033 181.368 225.677 182.544 226.831L196.875 241.162V131.25C196.875 129.592 197.534 128.003 198.706 126.831C199.878 125.658 201.467 125 203.125 125C204.783 125 206.372 125.658 207.544 126.831C208.717 128.003 209.375 129.592 209.375 131.25V256.25C209.375 257.908 208.717 259.497 207.544 260.669C206.372 261.842 204.783 262.5 203.125 262.5Z" fill="#FCC60E"/>
<path d="M203.125 262.5C201.889 262.5 200.681 262.133 199.654 261.447C198.626 260.76 197.825 259.784 197.352 258.642C196.879 257.5 196.755 256.244 196.996 255.031C197.238 253.819 197.833 252.706 198.706 251.832L223.706 226.832C224.882 225.677 226.466 225.034 228.113 225.041C229.761 225.049 231.339 225.706 232.504 226.871C233.669 228.036 234.327 229.614 234.334 231.262C234.342 232.91 233.698 234.494 232.544 235.669L207.544 260.669C206.964 261.25 206.276 261.711 205.517 262.026C204.759 262.34 203.946 262.501 203.125 262.5Z" fill="#FCC60E"/>
</g>
<defs>
<clipPath id="clip0_10_22">
<rect width="400" height="400" fill="white"/>
</clipPath>
</defs>
</svg>
